<svg xmlns="http://www.w3.org/2000/svg" width="40" height="40" viewBox="0 0 40 40">
    <g fill="#23DBB9" fill-rule="nonzero">
        <path d="M23.915 21.54c-.461-.23-1.487-.54-2.708-.622-1.222-.08-2.79 0-2.79 0v5.29s1.637.035 2.732-.046c1.095-.08 2.224-.357 2.789-.668.564-.312 1.245-.796 1.245-2.006 0-1.21-.807-1.717-1.268-1.947zm-3.446-3.077c.9-.034 1.856-.242 2.547-.622.691-.38 1.083-.98 1.06-1.879-.023-.899-.622-1.66-1.636-1.97-1.015-.312-1.694-.335-2.467-.346-.772-.012-1.556.057-1.556.057v4.76s1.153.035 2.052 0z"/>
        <path d="M19.985 0C8.947 0 0 8.947 0 19.985c0 11.037 8.947 19.984 19.985 19.984 11.037 0 19.984-8.947 19.984-19.984C39.969 8.947 31.022 0 19.985 0zm8.137 27.626c-1.487 1.037-3.078 1.222-3.78 1.314a25.43 25.43 0 0 1-1.58.13v4.008h-2.466v-3.942h-1.879v3.942h-2.466v-3.942h-4.852l.507-2.963h1.475c.496 0 .703-.046.91-.242.208-.196.254-.495.254-.738V14.988c0-.64-.052-.812-.346-1.14-.294-.33-.985-.373-1.374-.373h-1.426v-2.56h4.852V6.96h2.466v3.953h1.879V6.961h2.466v4c1.839.115 3.208.465 4.402 1.348 1.545 1.14 1.464 3.123 1.43 3.596-.035.472-.242 1.383-.658 1.97-.414.588-1.428 1.176-1.428 1.176s1.198.253 2.04.888c.84.634 1.464 1.751 1.428 3.388-.034 1.637-.368 3.262-1.854 4.299z"/>
    </g>
</svg>
