<svg xmlns="http://www.w3.org/2000/svg" width="40" height="40" viewBox="0 0 40 40">
    <path fill="#23DBB9" fill-rule="nonzero" d="M19.996.032C8.971.032.032 8.971.032 19.996c0 11.026 8.939 19.965 19.964 19.965 11.026 0 19.965-8.939 19.965-19.965C39.96 8.971 31.022.032 19.996.032zm8.356 28.86c-1.298 2.23-4.212 3.016-6.51 1.756-2.296-1.26-3.107-4.089-1.809-6.319.541-.929.204-2.107-.754-2.633-.943-.517-2.138-.205-2.689.695v-.004l-.023.041c-1.298 2.23-4.212 3.017-6.509 1.757-2.297-1.26-3.108-4.09-1.81-6.32 1.298-2.23 4.212-3.016 6.51-1.756a4.692 4.692 0 0 1 1.781 1.71v-.003c.573.886 1.772 1.172 2.704.635.944-.546 1.255-1.732.693-2.649-1.348-2.201-.602-5.047 1.666-6.356 2.267-1.31 5.199-.585 6.547 1.616 1.349 2.202.603 5.048-1.665 6.357a4.866 4.866 0 0 1-2.414.65l.003.001c-1.089.037-1.953.91-1.94 1.973.013 1.076.923 1.94 2.032 1.927l-.007.003a4.868 4.868 0 0 1 2.385.6c2.297 1.26 3.107 4.089 1.81 6.319z"/>
</svg>
