<svg xmlns="http://www.w3.org/2000/svg" width="40" height="40" viewBox="0 0 40 40">
    <path fill="#23DBB9" fill-rule="nonzero" d="M19.967 0C8.94 0 0 8.94 0 19.967c0 11.028 8.94 19.967 19.967 19.967 11.028 0 19.967-8.94 19.967-19.967S30.994 0 19.967 0zm-.259 33.196l-7.89-11.162 7.89 4.62v6.542zm0-8.178l-7.944-4.654 7.944-3.48v8.134zm0-8.693l-7.688 3.368 7.688-12.917v9.55zm.512-9.553l7.797 12.969-7.797-3.416V6.772zm0 26.424v-6.542l7.891-4.62-7.89 11.162zm0-8.178v-8.133l7.95 3.482-7.95 4.651z"/>
</svg>
