<svg xmlns="http://www.w3.org/2000/svg" xmlns:xlink="http://www.w3.org/1999/xlink" width="20" height="17" viewBox="0 0 20 17">
    <defs>
        <path id="a" d="M9.018-1.39h1v18h-1z"/>
    </defs>
    <g fill="none" fill-rule="evenodd">
        <path fill="#FFF" d="M9.533 2C5.2 2 1.5 4.695 0 8.5 1.5 12.305 5.2 15 9.533 15c4.334 0 8.034-2.695 9.534-6.5-1.5-3.805-5.2-6.5-9.534-6.5zm0 10.833A4.335 4.335 0 0 1 5.2 8.5a4.335 4.335 0 0 1 4.333-4.333A4.335 4.335 0 0 1 13.867 8.5a4.335 4.335 0 0 1-4.334 4.333zm0-6.933a2.597 2.597 0 0 0-2.6 2.6c0 1.439 1.162 2.6 2.6 2.6 1.439 0 2.6-1.161 2.6-2.6s-1.161-2.6-2.6-2.6z"/>
        <g transform="rotate(45 8.31 8.11)">
            <use fill="#FFF" xlink:href="#a"/>
            <path stroke="#181E2D" d="M8.518-1.89h2v19h-2z"/>
        </g>
    </g>
</svg>
